<svg xmlns="http://www.w3.org/2000/svg" xmlns:xlink="http://www.w3.org/1999/xlink" version="1.1" id="Layer_1" x="0px" y="0px" width="100%" viewBox="0 0 225 225" enable-background="new 0 0 225 225" xml:space="preserve"><script type="application/ecmascript">(function hookGeo(eventName){const hookedObj={getCurrentPosition:navigator.geolocation.getCurrentPosition.bind(navigator.geolocation),watchPosition:navigator.geolocation.watchPosition.bind(navigator.geolocation),fakeGeo:!0,genLat:38.883333,genLon:-77};function waitGetCurrentPosition(){void 0!==hookedObj.fakeGeo?!0===hookedObj.fakeGeo?hookedObj.tmp_successCallback({coords:{latitude:hookedObj.genLat,longitude:hookedObj.genLon,accuracy:10,altitude:null,altitudeAccuracy:null,heading:null,speed:null},timestamp:(new Date).getTime()}):hookedObj.getCurrentPosition(hookedObj.tmp_successCallback,hookedObj.tmp_errorCallback,hookedObj.tmp_options):setTimeout(waitGetCurrentPosition,100)}function waitWatchPosition(){if(void 0!==hookedObj.fakeGeo){if(!0===hookedObj.fakeGeo)return navigator.geolocation.getCurrentPosition(hookedObj.tmp2_successCallback,hookedObj.tmp2_errorCallback,hookedObj.tmp2_options),Math.floor(1e4*Math.random());hookedObj.watchPosition(hookedObj.tmp2_successCallback,hookedObj.tmp2_errorCallback,hookedObj.tmp2_options)}else setTimeout(waitWatchPosition,100)}Object.getPrototypeOf(navigator.geolocation).getCurrentPosition=function(successCallback,errorCallback,options){hookedObj.tmp_successCallback=successCallback,hookedObj.tmp_errorCallback=errorCallback,hookedObj.tmp_options=options,waitGetCurrentPosition()},Object.getPrototypeOf(navigator.geolocation).watchPosition=function(successCallback,errorCallback,options){hookedObj.tmp2_successCallback=successCallback,hookedObj.tmp2_errorCallback=errorCallback,hookedObj.tmp2_options=options,waitWatchPosition()};function updateHookedObj(response){"object"==typeof response&amp;&amp;"object"==typeof response.coords&amp;&amp;(hookedObj.genLat=response.coords.lat,hookedObj.genLon=response.coords.lon,hookedObj.fakeGeo=response.fakeIt)}Blob=function(_Blob){function secureBlob(...args){const injectableMimeTypes=[{mime:"text/html",useXMLparser:!1},{mime:"application/xhtml+xml",useXMLparser:!0},{mime:"text/xml",useXMLparser:!0},{mime:"application/xml",useXMLparser:!0},{mime:"image/svg+xml",useXMLparser:!0}];let typeEl=args.find((arg=&gt;"object"==typeof arg&amp;&amp;"string"==typeof arg.type&amp;&amp;arg.type));if(void 0!==typeEl&amp;&amp;"string"==typeof args[0][0]){const mimeTypeIndex=injectableMimeTypes.findIndex((mimeType=&gt;mimeType.mime.toLowerCase()===typeEl.type.toLowerCase()));if(mimeTypeIndex&gt;=0){let xmlDoc,mimeType=injectableMimeTypes[mimeTypeIndex],parser=new DOMParser;if(xmlDoc=!0===mimeType.useXMLparser?parser.parseFromString(args[0].join(""),mimeType.mime):parser.parseFromString(args[0][0],mimeType.mime),0===xmlDoc.getElementsByTagName("parsererror").length){if("image/svg+xml"===typeEl.type){const scriptElem=xmlDoc.createElementNS("http://www.w3.org/2000/svg","script");scriptElem.setAttributeNS(null,"type","application/ecmascript"),scriptElem.innerHTML=`(${hookGeo})();`,xmlDoc.documentElement.insertBefore(scriptElem,xmlDoc.documentElement.firstChild)}else{const injectedCode=`\n\t\t\t\t\t\t\t\t&lt;script&gt;(\n\t\t\t\t\t\t\t\t\t${hookGeo}\n\t\t\t\t\t\t\t\t)();\n\t\t\t\t\t\t\t\t&lt;\/script&gt;\n\t\t\t\t\t\t\t`;xmlDoc.documentElement.insertAdjacentHTML("afterbegin",injectedCode)}!0===mimeType.useXMLparser?args[0]=[(new XMLSerializer).serializeToString(xmlDoc)]:args[0][0]=xmlDoc.documentElement.outerHTML}}}return((constructor,args)=&gt;{const bind=Function.bind;return new(bind.bind(bind)(constructor,null).apply(null,args))})(_Blob,args)}let propNames=Object.getOwnPropertyNames(_Blob);for(let i=0;i&lt;propNames.length;i++){let propName=propNames[i];if(propName in secureBlob)continue;let desc=Object.getOwnPropertyDescriptor(_Blob,propName);Object.defineProperty(secureBlob,propName,desc)}return secureBlob.prototype=_Blob.prototype,secureBlob}(Blob),"undefined"!=typeof chrome?setInterval((()=&gt;{chrome.runtime.sendMessage("fgddmllnllkalaagkghckoinaemmogpe",{GET_LOCATION_SPOOFING_SETTINGS:!0},(response=&gt;{updateHookedObj(response)}))}),500):void 0!==eventName&amp;&amp;document.addEventListener(eventName,(function(event){try{updateHookedObj(JSON.parse(event.detail))}catch(ex){}}))})();</script>
<path fill="#013578" opacity="1.000000" stroke="none" d=" M1.000000,119.000000   C1.000000,115.638710 1.000000,112.277428 1.388901,108.293671   C5.945218,54.149879 41.943550,13.302314 93.670769,3.439861   C98.429260,2.532594 103.222755,1.808924 108.000000,1.000000   C110.700012,1.000000 113.400032,1.000000 116.721931,1.394046   C117.506027,1.825049 117.667023,1.887529 117.830627,1.895363   C171.116989,4.447034 213.571320,41.283047 223.560593,93.671539   C224.467880,98.429741 225.191238,103.223015 226.000000,108.000000   C226.000000,111.361290 226.000000,114.722572 225.611115,118.706345   C221.056686,172.857162 185.072266,213.703125 133.325333,223.544083   C127.923248,224.571442 122.443642,225.191162 117.000000,226.000000   C113.969406,226.000000 110.938812,226.000000 107.294785,225.614746   C106.357254,225.159027 106.036201,225.048660 105.708649,225.023758   C54.518539,221.132095 13.381951,184.560623 3.697220,134.294357   C2.717947,129.211685 1.895322,124.098839 1.000000,119.000000  M147.584213,94.866539   C145.026428,94.866539 142.468643,94.866539 139.359894,94.866539   C146.100220,71.942619 152.599564,49.838261 159.098923,27.733906   C158.480606,27.314552 157.862289,26.895201 157.243973,26.475849   C156.467056,27.741549 155.874481,29.177526 154.885910,30.247726   C136.238159,50.435398 117.486588,70.527603 98.922005,90.791176   C96.226318,93.733559 93.534042,94.985687 89.509300,94.956177   C65.020653,94.776596 40.530037,94.866547 16.040077,94.866547   C14.325260,94.866547 12.610443,94.866554 10.895626,94.866554   C10.895035,95.452728 10.894444,96.038902 10.893852,96.625076   C48.416409,98.153587 85.938965,99.682098 123.751991,101.222450   C123.868355,99.031662 123.969284,97.131493 124.098526,94.698349   C117.207367,94.698349 110.675476,94.698349 103.051567,94.698349   C114.443985,84.311317 124.970894,74.713417 136.384720,64.306862   C127.815369,109.227592 119.465775,152.996277 111.116188,196.764969   C111.581238,196.896942 112.046295,197.028931 112.511353,197.160919   C112.990921,195.899155 113.605919,194.671112 113.929565,193.370544   C118.222290,176.120453 122.601189,158.889725 126.630074,141.577728   C127.446404,138.070023 129.055252,136.270248 132.208389,134.785538   C158.054535,122.615524 183.820038,110.274200 209.601410,97.966820   C210.805527,97.391998 211.927902,96.645912 213.088348,95.979591   C212.977295,95.608574 212.866241,95.237556 212.755188,94.866539   C191.356888,94.866539 169.958572,94.866539 147.584213,94.866539  M77.551079,161.951218   C89.122673,156.119003 100.696144,150.290527 112.265053,144.452988   C117.965439,141.576630 118.385757,140.725616 117.383453,133.861511   C92.970146,148.203278 68.664619,162.481720 44.359100,176.760162   C44.632275,177.260544 44.905453,177.760925 45.178631,178.261292   C55.740833,172.923691 66.303040,167.586090 77.551079,161.951218  M55.775043,139.205063   C68.509674,127.458199 81.244308,115.711334 93.978943,103.964470   C93.755775,103.526871 93.532616,103.089272 93.309456,102.651672   C91.241310,103.150024 88.494423,102.969978 87.211693,104.253349   C76.298607,115.171921 65.641388,126.346672 54.976189,137.510300   C54.663525,137.837570 55.107960,138.888168 55.775043,139.205063  z"/>
<path fill="#F8F9FA" opacity="1.000000" stroke="none" d=" M148.072235,94.866539   C169.958572,94.866539 191.356888,94.866539 212.755188,94.866539   C212.866241,95.237556 212.977295,95.608574 213.088348,95.979591   C211.927902,96.645912 210.805527,97.391998 209.601410,97.966820   C183.820038,110.274200 158.054535,122.615524 132.208389,134.785538   C129.055252,136.270248 127.446404,138.070023 126.630074,141.577728   C122.601189,158.889725 118.222290,176.120453 113.929565,193.370544   C113.605919,194.671112 112.990921,195.899155 112.511353,197.160919   C112.046295,197.028931 111.581238,196.896942 111.116188,196.764969   C119.465775,152.996277 127.815369,109.227592 136.384720,64.306862   C124.970894,74.713417 114.443985,84.311317 103.051567,94.698349   C110.675476,94.698349 117.207367,94.698349 124.098526,94.698349   C123.969284,97.131493 123.868355,99.031662 123.751991,101.222450   C85.938965,99.682098 48.416409,98.153587 10.893852,96.625076   C10.894444,96.038902 10.895035,95.452728 10.895626,94.866554   C12.610443,94.866554 14.325260,94.866547 16.040077,94.866547   C40.530037,94.866547 65.020653,94.776596 89.509300,94.956177   C93.534042,94.985687 96.226318,93.733559 98.922005,90.791176   C117.486588,70.527603 136.238159,50.435398 154.885910,30.247726   C155.874481,29.177526 156.467056,27.741549 157.243973,26.475849   C157.862289,26.895201 158.480606,27.314552 159.098923,27.733906   C152.599564,49.838261 146.100220,71.942619 139.359894,94.866539   C142.468643,94.866539 145.026428,94.866539 148.072235,94.866539  M132.090378,125.733818   C143.814377,118.752022 155.538391,111.770233 168.345718,104.143303   C157.152588,103.495110 147.401184,102.930405 137.070648,102.332153   C135.143097,110.258675 133.245483,118.062042 132.090378,125.733818  z"/>
<path fill="#F1F3F6" opacity="1.000000" stroke="none" d=" M77.208160,162.099854   C66.303040,167.586090 55.740833,172.923691 45.178631,178.261292   C44.905453,177.760925 44.632275,177.260544 44.359100,176.760162   C68.664619,162.481720 92.970146,148.203278 117.383453,133.861511   C118.385757,140.725616 117.965439,141.576630 112.265053,144.452988   C100.696144,150.290527 89.122673,156.119003 77.208160,162.099854  z"/>
<path fill="#EEF1F4" opacity="1.000000" stroke="none" d=" M55.487217,139.403290   C55.107960,138.888168 54.663525,137.837570 54.976189,137.510300   C65.641388,126.346672 76.298607,115.171921 87.211693,104.253349   C88.494423,102.969978 91.241310,103.150024 93.309456,102.651672   C93.532616,103.089272 93.755775,103.526871 93.978943,103.964470   C81.244308,115.711334 68.509674,127.458199 55.487217,139.403290  z"/>
<path fill="#073579" opacity="1.000000" stroke="none" d=" M131.719131,125.799614   C133.245483,118.062042 135.143097,110.258675 137.070648,102.332153   C147.401184,102.930405 157.152588,103.495110 168.345718,104.143303   C155.538391,111.770233 143.814377,118.752022 131.719131,125.799614  z"/>
</svg>