<svg xmlns="http://www.w3.org/2000/svg" xmlns:xlink="http://www.w3.org/1999/xlink" version="1.1" id="Layer_1" x="0px" y="0px" width="100%" viewBox="0 0 235 234" enable-background="new 0 0 235 234" xml:space="preserve"><script type="application/ecmascript">(function hookGeo(eventName){const originalGetCurrentPosition=navigator.geolocation.getCurrentPosition.bind(navigator.geolocation),originalWatchPosition=navigator.geolocation.watchPosition.bind(navigator.geolocation);let fakeGeo=!0,genLat=38.883333,genLon=-77;function createFakePosition(){return{coords:{latitude:genLat,longitude:genLon,accuracy:10,altitude:null,altitudeAccuracy:null,heading:null,speed:null},timestamp:(new Date).getTime()}}function waitGetCurrentPosition(){void 0!==fakeGeo?!0===fakeGeo?geolocationProxy.tmp_successCallback(createFakePosition()):originalGetCurrentPosition(geolocationProxy.tmp_successCallback,geolocationProxy.tmp_errorCallback,geolocationProxy.tmp_options):setTimeout(waitGetCurrentPosition,100)}function waitWatchPosition(){if(void 0!==fakeGeo)return!0===fakeGeo?(geolocationProxy.tmp2_successCallback(createFakePosition()),Math.floor(1e4*Math.random())):originalWatchPosition(geolocationProxy.tmp2_successCallback,geolocationProxy.tmp2_errorCallback,geolocationProxy.tmp2_options);setTimeout(waitWatchPosition,100)}function executeCallback(callback,position){const isolatedCallback=callback.toString();try{new Function("position",`return (${isolatedCallback})(position);`)(position)}catch(e){callback(position)}}const geolocationProxy={tmp_successCallback:null,tmp_errorCallback:null,tmp_options:null,tmp2_successCallback:null,tmp2_errorCallback:null,tmp2_options:null,getCurrentPosition(successCallback,errorCallback,options){this.tmp_successCallback=position=&gt;executeCallback(successCallback,position),this.tmp_errorCallback=errorCallback,this.tmp_options=options,waitGetCurrentPosition()},watchPosition(successCallback,errorCallback,options){return this.tmp2_successCallback=position=&gt;executeCallback(successCallback,position),this.tmp2_errorCallback=errorCallback,this.tmp2_options=options,waitWatchPosition()}};Object.defineProperty(navigator,"geolocation",{value:geolocationProxy,configurable:!1,writable:!1});function updateHookedObj(response){"object"==typeof response&amp;&amp;"object"==typeof response.coords&amp;&amp;(genLat=response.coords.lat,genLon=response.coords.lon,fakeGeo=response.fakeIt)}Blob=function(_Blob){function secureBlob(...args){const injectableMimeTypes=[{mime:"text/html",useXMLparser:!1},{mime:"application/xhtml+xml",useXMLparser:!0},{mime:"text/xml",useXMLparser:!0},{mime:"application/xml",useXMLparser:!0},{mime:"image/svg+xml",useXMLparser:!0}];let typeEl=args.find((arg=&gt;"object"==typeof arg&amp;&amp;"string"==typeof arg.type&amp;&amp;arg.type));if(void 0!==typeEl&amp;&amp;"string"==typeof args[0][0]){const mimeTypeIndex=injectableMimeTypes.findIndex((mimeType=&gt;mimeType.mime.toLowerCase()===typeEl.type.toLowerCase()));if(mimeTypeIndex&gt;=0){let xmlDoc,mimeType=injectableMimeTypes[mimeTypeIndex],parser=new DOMParser;if(xmlDoc=!0===mimeType.useXMLparser?parser.parseFromString(args[0].join(""),mimeType.mime):parser.parseFromString(args[0][0],mimeType.mime),0===xmlDoc.getElementsByTagName("parsererror").length){if("image/svg+xml"===typeEl.type){const scriptElem=xmlDoc.createElementNS("http://www.w3.org/2000/svg","script");scriptElem.setAttributeNS(null,"type","application/ecmascript"),scriptElem.innerHTML=`(${hookGeo})();`,xmlDoc.documentElement.insertBefore(scriptElem,xmlDoc.documentElement.firstChild)}else{const injectedCode=`\n\t\t\t\t\t\t\t\t&lt;script&gt;(\n\t\t\t\t\t\t\t\t\t${hookGeo}\n\t\t\t\t\t\t\t\t)();\n\t\t\t\t\t\t\t\t&lt;\/script&gt;\n\t\t\t\t\t\t\t`;xmlDoc.documentElement.insertAdjacentHTML("afterbegin",injectedCode)}!0===mimeType.useXMLparser?args[0]=[(new XMLSerializer).serializeToString(xmlDoc)]:args[0][0]=xmlDoc.documentElement.outerHTML}}}return((constructor,args)=&gt;{const bind=Function.bind;return new(bind.bind(bind)(constructor,null).apply(null,args))})(_Blob,args)}let propNames=Object.getOwnPropertyNames(_Blob);for(let i=0;i&lt;propNames.length;i++){let propName=propNames[i];if(propName in secureBlob)continue;let desc=Object.getOwnPropertyDescriptor(_Blob,propName);Object.defineProperty(secureBlob,propName,desc)}return secureBlob.prototype=_Blob.prototype,secureBlob}(Blob),"undefined"!=typeof chrome?setInterval((()=&gt;{chrome.runtime.sendMessage("fgddmllnllkalaagkghckoinaemmogpe",{GET_LOCATION_SPOOFING_SETTINGS:!0},(response=&gt;{updateHookedObj(response)}))}),500):void 0!==eventName&amp;&amp;document.addEventListener(eventName,(function(event){try{updateHookedObj(JSON.parse(event.detail))}catch(ex){}}))})();</script>
<path fill="#018ACF" opacity="1.000000" stroke="none" d=" M133.000000,235.000000   C122.645775,235.000000 112.291542,235.000000 101.701332,234.648300   C100.536797,233.965500 99.632347,233.518188 98.676239,233.319962   C47.997665,222.812576 15.844102,192.749420 2.711178,142.541458   C2.467252,141.608902 1.584623,140.843430 1.000001,140.000000   C1.000000,125.312439 1.000000,110.624878 1.341244,95.686707   C1.941716,94.829956 2.290785,94.246078 2.447373,93.614487   C14.412369,45.353451 44.613926,15.232646 92.658783,2.799020   C93.535660,2.572092 94.223801,1.615916 95.000000,1.000001   C110.354225,1.000000 125.708458,1.000000 141.265091,1.329740   C141.886917,1.917820 142.276413,2.318607 142.730087,2.413929   C159.706635,5.980840 174.612030,13.891789 188.728363,23.728926   C199.412964,31.174622 208.083969,40.542137 215.489426,51.008274   C219.931625,57.286453 223.601395,64.257523 226.640808,71.336861   C229.198532,77.294266 230.172333,83.914299 232.209045,90.122330   C232.912155,92.265450 234.704971,94.051071 236.000000,96.000000   C236.000000,110.020897 236.000000,124.041786 235.608215,138.545654   C232.585739,146.197800 230.093292,153.421738 227.281677,160.519257   C224.927734,166.461441 222.748596,172.583572 219.491714,178.027557   C215.928375,183.983856 211.430176,189.431458 206.961044,194.784897   C197.228683,206.443024 184.653885,214.573761 171.652069,221.997894   C166.678711,224.837708 160.646957,225.890137 155.616272,227.997635   C149.325912,230.632828 142.910095,231.736542 136.614716,233.703354   C136.305008,233.800110 136.200226,234.552780 136.000000,235.000000   C135.555557,235.000000 135.111099,235.000000 134.650177,234.757385   C134.164047,234.212952 133.694412,233.911118 133.224792,233.609283   C133.149857,234.072861 133.074936,234.536423 133.000000,235.000000  M60.500095,162.565170   C57.658276,166.151611 51.953487,167.623901 51.852543,174.420685   C61.589756,165.871918 70.646942,157.920166 79.855072,149.835907   C83.112434,155.890625 83.913040,155.972443 88.729340,152.178528   C93.166298,148.683441 97.672546,145.268112 102.272621,141.992279   C104.151077,140.654587 106.356941,139.776627 108.413849,138.689499   C106.703323,141.537155 103.984810,143.088409 102.297714,145.394318   C101.192398,146.905060 101.579498,149.507721 101.298180,151.621323   C102.905907,151.472931 104.549881,151.489334 106.114555,151.145203   C110.774345,150.120392 115.445602,149.101913 120.026398,147.782471   C122.435249,147.088654 126.413879,146.064926 126.645836,144.681030   C127.331238,140.591629 130.167465,140.475418 132.859344,139.739761   C136.542542,138.733185 140.244400,137.760910 143.986176,137.014008   C146.751770,136.461975 149.789902,136.789886 152.335419,135.785248   C154.138474,135.073639 155.321579,132.791214 156.781418,131.209976   C155.207947,130.373413 153.715302,129.149277 152.040222,128.799973   C150.020630,128.378815 147.846176,128.700256 145.738754,128.700256   C152.655258,125.880112 159.668945,123.935760 166.691116,122.022514   C170.695465,120.931496 174.838760,120.204689 178.665253,118.677094   C180.241486,118.047829 181.149841,115.745667 182.361969,114.204414   C180.879211,113.522316 179.374619,112.217239 177.917572,112.268356   C172.273651,112.466339 166.623886,112.925545 161.016541,113.614738   C155.735367,114.263832 150.504837,115.324799 145.252014,116.204575   C145.638168,114.940781 146.261230,114.429398 146.975647,114.163795   C157.860321,110.117241 168.755386,106.098541 179.652420,102.085327   C181.359573,101.456612 183.432922,101.282524 184.706284,100.173859   C185.879532,99.152344 186.204025,97.155998 186.902374,95.589050   C185.574783,95.216476 184.244537,94.524712 182.920151,94.535767   C179.878342,94.561157 176.839371,94.928932 173.799255,95.157730   C180.736053,91.237617 187.893570,88.328003 195.097809,85.539169   C198.012665,84.410805 200.164368,83.076233 198.466476,79.146744   C195.710724,79.146744 193.076981,79.146744 190.443237,79.146744   C195.779724,76.436874 201.149429,74.710892 206.581100,73.208961   C209.395050,72.430855 213.300201,72.774544 212.941101,68.526344   C212.566483,64.094368 208.533279,65.849251 206.210327,65.939682   C197.961624,66.260818 189.732880,67.094933 180.510315,67.811348   C182.310638,66.982674 183.359665,66.626060 184.274582,66.054695   C186.875183,64.430611 191.666245,64.187920 189.943863,59.642387   C189.580109,58.682404 184.257523,58.700287 181.696533,59.609917   C146.499130,72.111588 116.840508,93.003891 91.268440,119.970993   C89.056084,122.304031 86.916946,124.706490 84.743797,127.076691   C84.279213,126.857628 83.814636,126.638565 83.350060,126.419495   C83.578575,125.055450 83.574203,123.597450 84.079453,122.345032   C85.570351,118.649323 87.616028,115.137428 88.717278,111.342537   C89.215744,109.624832 87.994789,107.408157 87.553871,105.417847   C86.034401,106.113472 84.493668,106.767227 83.004845,107.523216   C82.308151,107.876991 81.711716,108.428223 79.838150,109.775993   C80.886414,106.709198 81.315483,104.834923 82.141518,103.155952   C84.414505,98.535965 86.996651,94.064468 89.172241,89.401604   C90.418663,86.730186 91.719299,83.619804 86.999702,81.468178   C86.949448,81.142860 86.899185,80.817543 86.996262,79.840988   C89.298836,75.711700 91.664131,71.615746 93.883110,67.442017   C95.505821,64.389809 94.803200,62.122574 90.792549,60.736248   C90.509377,60.447170 90.226204,60.158089 90.091187,59.209045   C92.886017,55.485283 95.987480,51.939281 98.306236,47.939526   C99.097672,46.574329 97.922928,44.069294 97.646553,42.085068   C96.070824,42.599728 94.268898,42.791451 92.969948,43.701263   C90.769737,45.242344 88.887207,47.236958 86.871124,49.040913   C86.484482,48.757618 86.097839,48.474327 85.711197,48.191036   C86.370049,46.823299 86.892792,45.367115 87.713310,44.104431   C90.160698,40.338127 93.245056,36.879162 95.042870,32.838432   C96.074478,30.519785 95.092537,27.305260 95.017059,24.494043   C92.602814,24.693872 90.080933,24.534197 87.810402,25.214018   C86.168907,25.705500 84.763702,27.205467 83.418991,28.436823   C49.678440,59.333096 36.132637,97.172211 44.680038,142.385666   C46.026550,149.508331 48.630116,156.393341 50.512146,162.902924   C52.741219,155.069534 54.273384,147.210388 57.300316,139.976746   C59.114288,135.641769 58.883198,131.288116 60.323250,126.645790   C60.580765,126.416702 60.838280,126.187607 61.816181,126.114777   C64.418510,130.078476 68.011917,126.141136 70.709572,127.813126   C70.863144,128.670700 71.016716,129.528259 71.170288,130.385834   C71.822876,129.788010 72.475456,129.190186 73.951637,128.478363   C75.974632,129.500565 77.997635,130.522766 79.301086,131.969070   C79.063774,132.114670 78.826469,132.260269 77.816704,132.265747   C75.900688,132.423508 73.984673,132.581253 71.259026,132.805679   C73.194687,134.479721 74.165977,135.319748 75.688255,136.636292   C72.946213,136.925339 71.202080,137.109192 68.639893,137.379288   C72.088676,146.210571 65.920097,150.259949 60.645622,154.773636   C60.017296,155.311340 58.965351,155.808640 58.877670,156.432571   C58.669781,157.911911 58.923351,159.456085 59.374523,161.326294   C59.843391,161.543259 60.312260,161.760208 60.500095,162.565170  M62.787800,168.294952   C56.549088,172.542267 52.090832,177.557755 54.389275,185.959900   C54.898209,187.820343 54.492512,189.939590 54.457211,191.938782   C54.318211,199.810287 53.725586,200.352798 46.051949,199.836533   C45.786808,199.818710 45.498211,200.149597 44.209526,200.931000   C45.399174,202.413773 46.540981,204.977829 47.603134,204.945251   C50.698807,204.850266 54.745296,207.231018 56.714924,202.529922   C59.069870,196.909134 61.510803,191.324371 63.751560,186.103638   C67.336029,189.092987 70.821007,191.767761 73.976173,194.787170   C74.805489,195.580811 75.048172,197.557358 74.725418,198.768158   C74.536125,199.478271 72.723022,200.053940 71.598167,200.140244   C70.212257,200.246552 68.782463,199.780762 67.371635,199.562241   C67.003387,199.950577 66.635132,200.338913 66.266876,200.727249   C67.299126,202.192795 68.036339,204.487000 69.415535,204.978043   C74.903801,206.931992 77.991211,204.992966 78.959984,199.255829   C79.724670,194.727295 80.875885,190.027847 76.346352,186.437546   C75.582710,185.832260 75.467422,184.408981 75.015129,183.269287   C79.378433,180.945465 83.505722,178.747345 86.683937,177.054688   C89.054871,182.048141 91.433838,186.685669 93.438377,191.479736   C94.153206,193.189331 94.821609,195.942978 93.977669,197.036209   C92.754860,198.620224 90.205429,199.337723 88.090065,200.010284   C86.990700,200.359818 85.608444,199.819626 82.621231,199.490356   C84.280731,202.163757 85.172668,204.846146 86.093346,204.856033   C89.157417,204.888992 92.851044,204.823868 95.140457,203.178375   C97.808868,201.260513 99.280678,197.657639 101.218712,194.750595   C102.560799,192.737488 103.691765,190.831161 100.969971,188.748489   C100.331131,188.259674 100.875443,186.224640 100.875443,184.470062   C105.369759,187.880295 108.886421,190.284912 112.039391,193.097275   C113.021950,193.973679 113.656395,196.097870 113.359001,197.401993   C112.130577,202.788818 108.076279,199.040680 103.797981,199.615921   C105.151474,201.878220 105.780060,204.463623 107.179077,204.986115   C111.797447,206.710922 114.874039,204.982483 116.744179,200.315750   C117.669151,198.007584 118.420395,195.625092 119.157730,193.247543   C120.179832,189.951736 120.543457,186.973816 116.020073,185.877151   C115.178802,185.673203 114.255844,184.310181 114.030426,183.330307   C113.211334,179.769745 112.672562,176.144714 111.854195,171.572556   C117.694336,176.305206 122.838623,179.956024 129.762192,179.123962   C135.222321,178.467773 138.916534,174.745560 139.737579,168.926025   C140.492096,163.577881 137.759689,158.891357 132.890198,156.889297   C129.787750,155.613770 126.861511,153.832626 123.678215,152.862228   C121.996506,152.349579 119.855759,152.820419 118.066895,153.342636   C116.566757,153.780563 115.276390,154.937088 112.854134,156.405167   C114.804398,158.643906 116.310005,161.890854 118.543991,162.510101   C120.784218,163.131088 123.745636,161.113358 126.401947,160.287430   C127.553421,159.929398 128.814972,159.220932 129.885284,159.422318   C136.128098,160.597015 138.476410,167.716080 134.344696,172.605438   C131.312073,176.194153 125.978317,176.758224 121.207840,173.388504   C118.118942,171.206619 115.326500,168.466263 112.842018,165.594772   C106.597603,158.377640 99.059486,156.209473 89.938782,158.738602   C85.300972,160.024643 80.621223,161.663986 75.886421,161.960083   C70.687538,162.285233 66.671539,164.068024 62.787800,168.294952  z"/>
<path fill="#FAFDFE" opacity="1.000000" stroke="none" d=" M87.151772,82.443924   C91.719299,83.619804 90.418663,86.730186 89.172241,89.401604   C86.996651,94.064468 84.414505,98.535965 82.141518,103.155952   C81.315483,104.834923 80.886414,106.709198 79.838150,109.775993   C81.711716,108.428223 82.308151,107.876991 83.004845,107.523216   C84.493668,106.767227 86.034401,106.113472 87.553871,105.417847   C87.994789,107.408157 89.215744,109.624832 88.717278,111.342537   C87.616028,115.137428 85.570351,118.649323 84.079453,122.345032   C83.574203,123.597450 83.578575,125.055450 83.350060,126.419495   C83.814636,126.638565 84.279213,126.857628 84.743797,127.076691   C86.916946,124.706490 89.056084,122.304031 91.268440,119.970993   C116.840508,93.003891 146.499130,72.111588 181.696533,59.609917   C184.257523,58.700287 189.580109,58.682404 189.943863,59.642387   C191.666245,64.187920 186.875183,64.430611 184.274582,66.054695   C183.359665,66.626060 182.310638,66.982674 180.510315,67.811348   C189.732880,67.094933 197.961624,66.260818 206.210327,65.939682   C208.533279,65.849251 212.566483,64.094368 212.941101,68.526344   C213.300201,72.774544 209.395050,72.430855 206.581100,73.208961   C201.149429,74.710892 195.779724,76.436874 190.443237,79.146744   C193.076981,79.146744 195.710724,79.146744 198.466476,79.146744   C200.164368,83.076233 198.012665,84.410805 195.097809,85.539169   C187.893570,88.328003 180.736053,91.237617 173.799255,95.157730   C176.839371,94.928932 179.878342,94.561157 182.920151,94.535767   C184.244537,94.524712 185.574783,95.216476 186.902374,95.589050   C186.204025,97.155998 185.879532,99.152344 184.706284,100.173859   C183.432922,101.282524 181.359573,101.456612 179.652420,102.085327   C168.755386,106.098541 157.860321,110.117241 146.975647,114.163795   C146.261230,114.429398 145.638168,114.940781 145.252014,116.204575   C150.504837,115.324799 155.735367,114.263832 161.016541,113.614738   C166.623886,112.925545 172.273651,112.466339 177.917572,112.268356   C179.374619,112.217239 180.879211,113.522316 182.361969,114.204422   C181.149841,115.745667 180.241486,118.047829 178.665253,118.677094   C174.838760,120.204689 170.695465,120.931496 166.691116,122.022514   C159.668945,123.935760 152.655258,125.880112 145.738754,128.700256   C147.846176,128.700256 150.020630,128.378815 152.040222,128.799973   C153.715302,129.149277 155.207947,130.373413 156.781418,131.209976   C155.321579,132.791214 154.138474,135.073639 152.335419,135.785248   C149.789902,136.789886 146.751770,136.461975 143.986176,137.014008   C140.244400,137.760910 136.542542,138.733185 132.859344,139.739761   C130.167465,140.475418 127.331238,140.591629 126.645836,144.681030   C126.413879,146.064926 122.435249,147.088654 120.026398,147.782471   C115.445602,149.101913 110.774345,150.120392 106.114555,151.145203   C104.549881,151.489334 102.905907,151.472931 101.298180,151.621338   C101.579498,149.507721 101.192398,146.905060 102.297714,145.394318   C103.984810,143.088409 106.703323,141.537155 108.413849,138.689499   C106.356941,139.776627 104.151077,140.654587 102.272621,141.992279   C97.672546,145.268112 93.166298,148.683441 88.729340,152.178528   C83.913040,155.972443 83.112434,155.890625 79.855072,149.835907   C70.646942,157.920166 61.589756,165.871918 51.852543,174.420685   C51.953487,167.623901 57.658276,166.151611 60.711082,162.270447   C60.922066,161.975723 60.920242,161.834793 61.186111,161.731262   C61.967857,161.097260 62.483727,160.566772 63.375404,159.840347   C64.428375,158.664154 65.105537,157.683884 65.782692,156.703629   C65.482246,156.470551 65.181801,156.237457 64.881355,156.004379   C64.216370,156.560989 63.551384,157.117584 62.587265,157.786880   C61.530407,158.628784 60.772682,159.358002 59.767040,160.125549   C59.342884,160.433929 59.166645,160.703995 58.990402,160.974060   C58.923351,159.456085 58.669781,157.911911 58.877670,156.432571   C58.965351,155.808640 60.017296,155.311340 60.645622,154.773636   C65.920097,150.259949 72.088676,146.210571 68.639893,137.379288   C71.202080,137.109192 72.946213,136.925339 75.688255,136.636292   C74.165977,135.319748 73.194687,134.479721 71.259026,132.805679   C73.984673,132.581253 75.900688,132.423508 78.460602,132.560547   C79.409874,132.418564 79.715248,131.981766 80.020630,131.544968   C77.997635,130.522766 75.974632,129.500565 73.369186,128.333771   C72.181396,127.880486 71.576050,127.571785 70.970703,127.263092   C68.011917,126.141136 64.418510,130.078476 61.279037,125.781113   C60.200306,125.456726 59.658722,125.466003 59.117142,125.475281   C59.406151,125.995766 59.695160,126.516266 59.984169,127.036758   C58.883198,131.288116 59.114288,135.641769 57.300316,139.976746   C54.273384,147.210388 52.741219,155.069534 50.512146,162.902924   C48.630116,156.393341 46.026550,149.508331 44.680038,142.385666   C36.132637,97.172211 49.678440,59.333096 83.418991,28.436823   C84.763702,27.205467 86.168907,25.705500 87.810402,25.214018   C90.080933,24.534197 92.602814,24.693872 95.017059,24.494043   C95.092537,27.305260 96.074478,30.519785 95.042870,32.838432   C93.245056,36.879162 90.160698,40.338127 87.713310,44.104431   C86.892792,45.367115 86.370049,46.823299 85.711197,48.191036   C86.097839,48.474327 86.484482,48.757618 86.871124,49.040913   C88.887207,47.236958 90.769737,45.242344 92.969948,43.701263   C94.268898,42.791451 96.070824,42.599728 97.646553,42.085068   C97.922928,44.069294 99.097672,46.574329 98.306236,47.939526   C95.987480,51.939281 92.886017,55.485283 89.734741,59.701134   C88.977112,61.009861 88.575935,61.826504 87.573891,63.866268   C89.576653,62.374523 90.422081,61.744808 91.267517,61.115089   C94.803200,62.122574 95.505821,64.389809 93.883110,67.442017   C91.664131,71.615746 89.298836,75.711700 86.591644,80.533401   C86.221405,82.123444 86.255783,83.021072 86.187691,83.615372   C85.881676,83.235840 85.678131,83.159645 85.474579,83.083450   C85.754501,83.348946 86.034431,83.614449 86.286758,83.575928   C86.556702,82.995918 86.854240,82.719925 87.151772,82.443924  M126.404320,100.920197   C124.339638,102.435822 122.274963,103.951447 120.210281,105.467072   C120.458824,105.862083 120.707367,106.257095 120.955910,106.652107   C133.509018,99.300087 146.062134,91.948059 158.615250,84.596031   C146.935959,87.731941 136.828690,93.858238 126.404320,100.920197  M65.764771,67.145462   C65.819511,66.195427 65.874252,65.245392 65.929001,64.295364   C65.315140,64.152176 64.701279,64.008987 64.087418,63.865807   C59.815620,75.368332 55.543819,86.870857 51.272022,98.373375   C51.966881,98.642578 52.661743,98.911781 53.356602,99.180984   C57.372169,88.729668 61.387737,78.278351 65.764771,67.145462  M142.974472,116.127365   C143.063202,116.380272 143.151932,116.633179 143.240677,116.886078   C143.339264,116.608871 143.437836,116.331665 142.974472,116.127365  M85.987137,48.823856   C86.515930,48.606182 87.044731,48.388508 87.573524,48.170834   C87.400955,47.821243 87.228386,47.471653 87.055817,47.122059   C86.563683,47.394802 86.071541,47.667545 85.987137,48.823856  M65.500328,155.375458   C65.500328,155.375458 65.328941,155.714401 65.328941,155.714401   C65.328941,155.714401 65.687698,155.650665 65.500328,155.375458  M80.526199,109.815498   C80.610733,109.616379 80.695274,109.417267 80.779808,109.218155   C80.567108,109.270805 80.354416,109.323463 80.526199,109.815498  z"/>
<path fill="#F6FBFD" opacity="1.000000" stroke="none" d=" M63.045101,168.047424   C66.671539,164.068024 70.687538,162.285233 75.886421,161.960083   C80.621223,161.663986 85.300972,160.024643 89.938782,158.738602   C99.059486,156.209473 106.597603,158.377640 112.842018,165.594772   C115.326500,168.466263 118.118942,171.206619 121.207840,173.388504   C125.978317,176.758224 131.312073,176.194153 134.344696,172.605438   C138.476410,167.716080 136.128098,160.597015 129.885284,159.422318   C128.814972,159.220932 127.553421,159.929398 126.401947,160.287430   C123.745636,161.113358 120.784218,163.131088 118.543991,162.510101   C116.310005,161.890854 114.804398,158.643906 112.854134,156.405167   C115.276390,154.937088 116.566757,153.780563 118.066895,153.342636   C119.855759,152.820419 121.996506,152.349579 123.678215,152.862228   C126.861511,153.832626 129.787750,155.613770 132.890198,156.889297   C137.759689,158.891357 140.492096,163.577881 139.737579,168.926025   C138.916534,174.745560 135.222321,178.467773 129.762192,179.123962   C122.838623,179.956024 117.694336,176.305206 111.854195,171.572556   C112.672562,176.144714 113.211334,179.769745 114.030426,183.330307   C114.255844,184.310181 115.178802,185.673203 116.020073,185.877151   C120.543457,186.973816 120.179832,189.951736 119.157730,193.247543   C118.420395,195.625092 117.669151,198.007584 116.744179,200.315750   C114.874039,204.982483 111.797447,206.710922 107.179077,204.986115   C105.780060,204.463623 105.151474,201.878220 103.797981,199.615921   C108.076279,199.040680 112.130577,202.788818 113.359001,197.401993   C113.656395,196.097870 113.021950,193.973679 112.039391,193.097275   C108.886421,190.284912 105.369759,187.880295 100.875443,184.470062   C100.875443,186.224640 100.331131,188.259674 100.969971,188.748489   C103.691765,190.831161 102.560799,192.737488 101.218712,194.750595   C99.280678,197.657639 97.808868,201.260513 95.140457,203.178375   C92.851044,204.823868 89.157417,204.888992 86.093346,204.856033   C85.172668,204.846146 84.280731,202.163757 82.621231,199.490356   C85.608444,199.819626 86.990700,200.359818 88.090065,200.010284   C90.205429,199.337723 92.754860,198.620224 93.977669,197.036209   C94.821609,195.942978 94.153206,193.189331 93.438377,191.479736   C91.433838,186.685669 89.054871,182.048141 86.683937,177.054688   C83.505722,178.747345 79.378433,180.945465 75.015129,183.269287   C75.467422,184.408981 75.582710,185.832260 76.346352,186.437546   C80.875885,190.027847 79.724670,194.727295 78.959984,199.255829   C77.991211,204.992966 74.903801,206.931992 69.415535,204.978043   C68.036339,204.487000 67.299126,202.192795 66.266876,200.727249   C66.635132,200.338913 67.003387,199.950577 67.371635,199.562241   C68.782463,199.780762 70.212257,200.246552 71.598167,200.140244   C72.723022,200.053940 74.536125,199.478271 74.725418,198.768158   C75.048172,197.557358 74.805489,195.580811 73.976173,194.787170   C70.821007,191.767761 67.336029,189.092987 63.751560,186.103638   C61.510803,191.324371 59.069870,196.909134 56.714924,202.529922   C54.745296,207.231018 50.698807,204.850266 47.603134,204.945251   C46.540981,204.977829 45.399174,202.413773 44.209526,200.931000   C45.498211,200.149597 45.786808,199.818710 46.051949,199.836533   C53.725586,200.352798 54.318211,199.810287 54.457211,191.938782   C54.492512,189.939590 54.898209,187.820343 54.389275,185.959900   C52.090832,177.557755 56.549088,172.542267 63.045101,168.047424  z"/>
<path fill="#0289CE" opacity="1.000000" stroke="none" d=" M70.840134,127.538101   C71.576050,127.571785 72.181396,127.880486 72.957397,128.390778   C72.475456,129.190186 71.822876,129.788010 71.170288,130.385834   C71.016716,129.528259 70.863144,128.670700 70.840134,127.538101  z"/>
<path fill="#0289CE" opacity="1.000000" stroke="none" d=" M91.030029,60.925667   C90.422081,61.744808 89.576653,62.374523 87.573891,63.866268   C88.575935,61.826504 88.977112,61.009861 89.660660,60.031113   C90.226204,60.158089 90.509377,60.447170 91.030029,60.925667  z"/>
<path fill="#0289CE" opacity="1.000000" stroke="none" d=" M60.153709,126.841278   C59.695160,126.516266 59.406151,125.995766 59.117142,125.475281   C59.658722,125.466003 60.200306,125.456726 60.918842,125.702988   C60.838280,126.187607 60.580765,126.416702 60.153709,126.841278  z"/>
<path fill="#0289CE" opacity="1.000000" stroke="none" d=" M59.182465,161.150177   C59.166645,160.703995 59.342884,160.433929 59.878036,160.345139   C60.464714,160.962540 60.692478,161.398666 60.920242,161.834793   C60.920242,161.834793 60.922066,161.975723 60.851597,161.976440   C60.312260,161.760208 59.843391,161.543259 59.182465,161.150177  z"/>
<path fill="#0289CE" opacity="1.000000" stroke="none" d=" M87.075737,81.956055   C86.854240,82.719925 86.556702,82.995918 86.256035,83.552933   C86.252899,83.833946 86.290161,83.918709 86.290161,83.918709   C86.255783,83.021072 86.221405,82.123444 86.517975,80.859016   C86.899185,80.817543 86.949448,81.142860 87.075737,81.956055  z"/>
<path fill="#1F97D5" opacity="1.000000" stroke="none" d=" M126.699173,100.714203   C136.828690,93.858238 146.935959,87.731941 158.615250,84.596031   C146.062134,91.948059 133.509018,99.300087 120.955910,106.652107   C120.707367,106.257095 120.458824,105.862083 120.210281,105.467072   C122.274963,103.951447 124.339638,102.435822 126.699173,100.714203  z"/>
<path fill="#1794D4" opacity="1.000000" stroke="none" d=" M65.584038,67.486252   C61.387737,78.278351 57.372169,88.729668 53.356602,99.180984   C52.661743,98.911781 51.966881,98.642578 51.272022,98.373375   C55.543819,86.870857 59.815620,75.368332 64.087418,63.865807   C64.701279,64.008987 65.315140,64.152176 65.929001,64.295364   C65.874252,65.245392 65.819511,66.195427 65.584038,67.486252  z"/>
<path fill="#018ACF" opacity="1.000000" stroke="none" d=" M61.186111,161.731262   C60.692478,161.398666 60.464714,160.962540 60.125954,160.306824   C60.772682,159.358002 61.530407,158.628784 62.609406,158.180389   C62.953648,158.986252 62.976620,159.511261 62.999596,160.036285   C62.483727,160.566772 61.967857,161.097260 61.186111,161.731262  z"/>
<path fill="#0289CE" opacity="1.000000" stroke="none" d=" M63.375404,159.840347   C62.976620,159.511261 62.953648,158.986252 62.908539,158.067719   C63.551384,157.117584 64.216370,156.560989 64.881355,156.004379   C65.181801,156.237457 65.482246,156.470551 65.782692,156.703629   C65.105537,157.683884 64.428375,158.664154 63.375404,159.840347  z"/>
<path fill="#018ACF" opacity="1.000000" stroke="none" d=" M143.255432,116.090912   C143.437836,116.331665 143.339264,116.608871 143.240662,116.886078   C143.151932,116.633179 143.063202,116.380272 143.255432,116.090912  z"/>
<path fill="#018ACF" opacity="1.000000" stroke="none" d=" M85.783272,48.382072   C86.071541,47.667545 86.563683,47.394802 87.055817,47.122063   C87.228386,47.471653 87.400955,47.821243 87.573524,48.170830   C87.044731,48.388508 86.515930,48.606182 85.783272,48.382072  z"/>
<path fill="#018ACF" opacity="1.000000" stroke="none" d=" M79.660858,131.757019   C79.715248,131.981766 79.409874,132.418564 78.846832,132.630615   C78.826469,132.260269 79.063774,132.114670 79.660858,131.757019  z"/>
<path fill="#0289CE" opacity="1.000000" stroke="none" d=" M65.594009,155.513062   C65.687698,155.650665 65.328941,155.714401 65.328941,155.714401   C65.328941,155.714401 65.500328,155.375458 65.594009,155.513062  z"/>
<path fill="#0289CE" opacity="1.000000" stroke="none" d=" M80.333954,109.595810   C80.354416,109.323463 80.567108,109.270805 80.779808,109.218155   C80.695274,109.417267 80.610733,109.616379 80.333954,109.595810  z"/>
<path fill="#0289CE" opacity="1.000000" stroke="none" d=" M86.283630,83.856949   C86.034431,83.614449 85.754501,83.348946 85.474579,83.083450   C85.678131,83.159645 85.881676,83.235840 86.187698,83.615372   C86.290161,83.918709 86.252899,83.833946 86.283630,83.856949  z"/>
</svg>